<svg xmlns="http://www.w3.org/2000/svg" viewBox="0 406.6 610.1 246"><path fill="#FFF" d="M338 441c4 0 6 1 8 4v5c0 5-4 8-8 8s-7-4-7-9 3-8 7-8m-1 21c4 0 7-2 9-5v2c0 2 1 2 2 2 2 0 3 0 3-2v-22h-2c-2 0-3 0-3 3-2-2-5-4-9-4-6 0-11 5-11 13s5 13 11 13m-27-1c2 0 3 0 3-2v-9c0-5 1-9 5-9l3 1 1-2c0-2-1-3-3-3-3 0-5 1-7 4 0-3-1-4-3-4h-1v22c0 2 1 2 2 2m51 0c2 0 3 0 3-2v-14c1-3 3-4 6-4 4 0 6 2 6 6v12c0 2 1 2 2 2 2 0 3 0 3-2v-12c0-6-3-11-10-11-3 0-6 2-8 5 0-4-1-4-3-4h-2v22c1 2 1 2 3 2m-63-29c2 0 3-1 3-3s-1-3-3-3-3 1-3 3 1 3 3 3m0 29c1 0 2 0 2-2v-20c0-2-1-2-2-2h-1c-1 0-2 0-2 2v20c0 2 1 2 2 2h1zm-30 0h19l2-2c0-2-1-2-2-2h-17v-10h13l2-2v-1l-2-2h-13v-9h16c2 0 3 0 3-2 0-1-1-2-3-2h-18c-2 0-3 1-3 3v26c0 2 1 3 3 3m201 25c-2 0-3 0-3 2v20c1 1 1 2 3 2l2-2v-20c0-2 0-2-2-2m0-5c2 0 3-1 3-3s-1-3-3-3-3 1-3 3 1 3 3 3m-40 25c0 3 2 4 3 4l2-1v-21c0-2-1-2-2-2h-1c-1 0-2 0-2 2v14c-1 2-4 4-7 4s-5-2-5-7v-11c0-2-1-2-3-2-1 0-2 0-2 2v12c0 6 3 10 9 10 4 0 6-1 8-4m-131-20c-1 0-2 0-2 2v20l2 2c2 0 3-1 3-2v-20c0-2-1-2-3-2m52 20c0 3 1 4 3 4l1-1v-21c0-2 0-2-2-2s-2 0-2 2v14c-2 2-4 4-7 4-4 0-6-2-6-7v-11c0-2-1-2-2-2-2 0-3 0-3 2v12c0 6 3 10 10 10 3 0 6-1 8-4m-74-17c3 0 6 2 7 5v5c0 4-4 7-8 7s-7-3-7-8 3-9 8-9m-2 22c4 0 7-2 9-5v2c0 2 1 2 2 2h1c1 0 2 0 2-2v-22h-2c-1 0-3 0-3 3-1-2-4-4-8-4-7 0-12 5-12 13 0 7 5 13 11 13m216-5c-4 0-8-3-8-8s4-9 8-9c5 0 8 4 8 9s-3 8-8 8m0-21c-7 0-12 6-12 13s5 13 12 13c8 0 13-6 13-13s-5-13-13-13m-192-10c-2 0-3 1-3 3s1 3 3 3 3-1 3-3-1-3-3-3m67 0c-2 0-3 1-3 3s1 3 3 3c1 0 2-1 2-3 1-2 0-3-2-3m79 35l2-2v-10l10 10c1 2 2 2 3 2l2-2-10-11 9-9c0-1-1-2-3-2l-2 1-9 9v-16c0-4-1-5-3-5l-2 1v32c0 2 1 2 3 2m-70-17c0 5 5 6 8 7 4 1 6 1 6 3s-2 4-5 4c-4 0-7-2-8-4l-2 2c0 2 3 5 10 5 6 0 10-3 10-7 0-5-5-7-9-7-4-1-6-2-6-4s2-3 5-3 6 1 7 3c1 0 2 0 2-2s-3-5-9-5c-5 0-9 3-9 8m-9-7h-1c-1 0-2 0-2 2v20l2 2h1l2-2v-20c0-2-1-2-2-2m-44 1l-8 10v-17c0-4-2-4-3-4h-2v32c0 2 1 2 2 2h1c1 0 2 0 2-2v-10l10 11 3 1 2-2-10-11 9-9c0-1-1-2-3-2l-3 1m81 23l2-2v-28c0-4-1-4-3-4h-2v32c0 2 1 2 3 2m-110 29l1-1-1-1h-27l-1 1 1 1h27zm78 53l1-2v-20l-1-1-1 1v9h-14v-9l-1-1-1 1v20l1 1c1 1 1 0 1-1v-9h14v9l1 2m39-4v1l1 2h1v-9l-2-2h-7l-1 1 1 1h7v2c-1 3-4 6-8 6-5 0-8-4-8-10s3-10 8-10c3 0 6 2 7 4l2-1c0-1-3-5-9-5s-11 5-11 12 4 12 11 12c3 0 6-2 8-4m-28-19l-1 1v20l1 2 1-2v-20l-1-1zm-102 20h-12v-8h10l1-1-1-1h-10v-8h12l1-1-1-1h-13l-2 1v20l2 1h13l1-1-1-1m22-9v-9h5c4 0 6 1 6 4s-2 5-6 5h-5zm6 2c5 0 7-3 7-7s-3-6-8-6h-6l-1 1v20l1 1 1-1v-8h3l7 9h2l1-1-7-8zm19 0l4-11 4 11h-8zm4-13h-2l-8 22h1c1 1 1 0 1-1l3-6h10l2 6 1 1h2l-8-22h-2m-42 0l-1 1v20l1 2h1l1-2v-20l-1-1h-1zm230 0l-1 1v9h-13v-9l-1-1h-1l-1 1v20l1 2 2-2v-9h13v9l1 2 1-2v-20c1-1 0-1-1-1m-25 16c-1 3-4 5-8 5-5 0-9-4-9-10s4-10 9-10c3 0 6 2 7 4l2-1c0-2-3-5-9-5s-11 5-11 12 5 12 11 12 9-4 9-5l-1-2m74 5c-5 0-8-4-8-10s3-10 8-10 9 4 9 10-3 10-9 10m0-22c-6 0-11 5-11 12s5 12 11 12c7 0 12-5 12-12s-5-12-12-12m33 21h-11v-19l-1-1h-1l-1 1v20l2 1h12l1-1-1-1m-62 1c-5 0-8-4-8-10s3-10 8-10 9 4 9 10-3 10-9 10m0-22c-6 0-11 5-11 12s5 12 11 12c7 0 12-5 12-12s-5-12-12-12m-70 17c0-4-4-5-8-6-3-1-5-2-5-5 0-2 2-4 5-4s5 2 6 4l1-2c0-1-2-4-7-4-4 0-8 3-8 7s4 5 7 6 6 2 6 5c0 2-2 4-5 4-4 0-6-2-7-4l-1 1c0 2 3 5 8 5s8-3 8-7m-32-16l-1 1v9h-14v-9l-1-1-1 1v20l1 2 1-2v-9h14v9l1 2 1-2v-20l-1-1m-88 54l4-11 4 11h-8zm4-14l-1 1-9 22h1l2-1 2-6h10l2 6 2 1h1l-8-22-2-1m-57 21c-5 0-8-4-8-9 0-6 3-10 8-10s9 4 9 10-3 9-9 9m0-21c-6 0-11 5-11 12s5 11 11 11c7 1 12-4 12-11s-5-12-12-12m160 1h-16l-2 1 1 1h8v19l1 1 1-1v-19h7l1-1-1-1m15 10c-4-1-6-2-6-5 0-2 2-4 5-4s5 2 6 3l2-1c0-1-3-4-8-4-4 0-7 3-7 6 0 5 3 6 7 7 3 1 6 1 6 4s-2 4-6 4c-3 0-5-1-7-3l-1 1c0 2 3 4 8 4s8-2 8-6-3-6-7-6m-95 10h-4v-18h4c7 0 10 3 10 9s-3 9-10 9m1-20h-6l-1 1v20l1 1h5c8 0 13-4 13-11s-5-11-12-11m-54 11h-6v-9h6c4 0 5 1 5 4s-1 5-5 5m8-5c0-4-3-6-8-6h-7l-1 1v20l1 1 2-1v-9h2l8 9 1 1 2-1-8-9c5 1 8-2 8-6m104 14h-11v-20l-1-1-1 1v21l1 1h12l1-1c1-1 0-1-1-1m-22-21h-1l-1 1v13c0 5-2 7-6 7s-7-2-7-7v-13l-1-1-1 1v13c0 6 3 9 9 9s9-3 9-9v-13l-1-1m-134 1h-12l-2 1v20l1 1h1l1-1v-9h8l2-1-1-1h-9v-8h11l1-1v-1h-1M127 456c-6 7-9 14-11 19-1-6-3-14-8-22 8-12 21-22 45-22h24c-26 4-42 15-50 25m53 53c-14 11-27 11-27 11-14 0-25 3-33 9-5-4-9-8-12-13 9-15 9-32 9-32s0-13 12-26c11-14 33-27 78-27-1 44-14 67-27 78m27-25c-1 0 0 29-22 45-6-4-13-7-22-9 5-1 12-4 18-10 11-8 21-23 26-50v24zm0 92v24c-5-26-15-41-26-50-7-6-13-9-18-10 9-1 16-4 22-8 22 15 22 44 22 44m-85-46c8-5 18-8 31-8s23 3 30 8c-7 5-17 8-30 8s-23-3-31-8m7 73c-12-14-12-27-12-27s0-17-9-32l12-13c8 6 19 9 33 9 0 0 13 0 26 12 14 11 27 33 27 78-44-1-66-14-77-27m24 27c-24 0-37-11-45-22 5-8 7-17 8-23 2 5 5 12 11 19 8 11 24 21 50 26h-24zm-54-54s0-15 8-29c8 14 8 29 8 29s0 15-8 29c-8-14-8-29-8-29m-38 54H37c26-5 42-15 50-26 6-7 9-14 11-19 1 6 3 14 8 22-8 12-21 23-45 23m-26-78c13-11 26-11 26-11 14 0 25-4 33-9 5 3 9 8 12 12-9 15-9 32-9 32 0 2-1 14-12 27s-33 27-78 27c1-45 14-67 28-78M7 576s0-29 22-44c5 4 13 7 22 8-5 1-11 4-18 10-11 9-21 24-26 50v-24zm0-92v-24c5 27 15 42 26 51 6 5 13 8 18 9-9 2-16 5-22 9-22-16-21-45-22-45m85 46c-8 5-18 8-31 8s-23-3-30-8c7-5 17-8 30-8s23 3 31 8m-7-72c12 13 12 26 12 26s0 17 9 32l-12 13c-8-6-19-9-33-9 0 0-13 0-26-12-14-11-27-33-27-78 44 1 66 14 77 28m-24-27c24 0 37 10 45 22-5 8-7 16-8 22-2-5-5-12-11-19-8-10-24-21-50-25h24zm57 99l-11 12-11-12 11-12c3 5 7 9 11 12m-3-46s0 15-8 30c-8-15-8-30-8-30 0-1 0-16 8-29 8 14 8 29 8 29m-8-33c-8-12-22-23-46-23H5v56s0 30 22 46C5 546 5 576 5 576v56h56c24 0 38-10 46-22 8 12 22 22 46 22h56v-56s0-30-21-46c21-16 21-46 21-46v-56h-56c-24 0-38 11-46 23"/></svg>